<?xml version="1.0" standalone="no"?>
<!DOCTYPE svg PUBLIC "-//W3C//DTD SVG 20010904//EN"
 "http://www.w3.org/TR/2001/REC-SVG-20010904/DTD/svg10.dtd">
<svg version="1.0" xmlns="http://www.w3.org/2000/svg"
 width="575.000000pt" height="126.000000pt" viewBox="0 0 575.000000 126.000000"
 preserveAspectRatio="xMidYMid meet">

<g transform="translate(0.000000,126.000000) scale(0.100000,-0.100000)"
fill="#000000" stroke="none">
<path d="M330 1009 c-55 -25 -96 -62 -121 -112 -11 -21 -52 -129 -91 -240 -75
-213 -89 -287 -68 -352 33 -99 157 -175 290 -175 55 0 147 23 200 50 l39 20
27 -25 c30 -28 81 -45 134 -45 34 0 116 33 154 62 17 14 24 12 66 -14 93 -58
246 -61 353 -8 l43 22 38 -26 c65 -44 135 -46 203 -5 31 19 31 19 69 -3 33
-19 54 -23 149 -24 166 -3 152 -18 251 266 30 85 65 165 77 178 27 29 61 44
83 35 22 -8 15 -43 -35 -186 -46 -132 -50 -177 -21 -225 42 -69 164 -91 250
-47 55 29 117 99 155 179 41 86 42 114 3 136 -41 22 -76 0 -113 -76 -43 -86
-62 -110 -100 -128 -36 -18 -65 -12 -65 11 0 9 23 82 51 164 45 133 49 152 40
186 -24 89 -126 136 -214 99 -28 -11 -36 -11 -52 0 -28 21 -69 17 -92 -8 -11
-13 -50 -109 -87 -215 -69 -195 -85 -222 -140 -243 -24 -9 -32 -8 -44 4 -13
13 -7 37 51 208 37 106 67 203 67 215 0 28 -45 63 -80 63 -15 0 -38 -8 -50
-18 -20 -16 -27 -17 -59 -6 -79 29 -180 3 -223 -56 -10 -14 -41 -91 -69 -170
-55 -156 -77 -191 -144 -220 -89 -40 -179 -31 -218 22 -27 36 -17 84 16 73 12
-5 50 -10 83 -12 70 -5 119 14 166 64 30 31 58 101 58 142 -1 47 -36 108 -81
138 -37 24 -52 28 -113 28 -60 0 -79 -4 -118 -28 -65 -38 -91 -80 -139 -224
-45 -136 -83 -197 -136 -219 -32 -14 -38 -14 -51 -1 -13 14 -1 54 102 352 64
185 116 344 116 354 0 28 -38 61 -69 61 -55 0 -67 -22 -170 -315 -54 -154
-103 -292 -109 -306 -16 -41 -71 -98 -115 -120 -121 -62 -273 -8 -270 95 1 27
94 304 138 413 19 46 51 73 85 73 40 0 52 -25 38 -79 -13 -53 -1 -85 39 -99
40 -13 87 7 108 48 23 44 30 129 16 173 -33 99 -186 148 -301 96z m860 -409
c27 -27 25 -56 -5 -85 -24 -25 -68 -33 -94 -16 -19 12 3 75 36 101 32 25 38
25 63 0z m471 -6 c19 -24 14 -68 -21 -179 -37 -112 -54 -143 -87 -156 -65 -25
-68 21 -12 190 50 150 83 190 120 145z"/>
<path d="M4902 1008 c-12 -14 -67 -156 -131 -338 -65 -185 -122 -332 -139
-355 -34 -49 -71 -70 -90 -52 -10 11 -4 36 29 132 50 145 49 173 -11 227 -23
20 -60 43 -83 51 -37 12 -43 18 -48 52 -4 22 -16 46 -29 57 -30 24 -94 24
-119 -1 -36 -36 -46 -113 -19 -148 11 -13 -24 -116 -69 -205 -24 -50 -63 -78
-108 -78 -31 0 -32 15 -1 71 73 134 49 246 -62 297 -45 20 -65 24 -111 19
-120 -10 -180 -66 -230 -211 -18 -52 -39 -103 -47 -115 -18 -25 -56 -28 -75
-5 -11 14 -9 30 19 108 52 147 40 212 -43 222 -57 7 -100 -22 -131 -90 -31
-69 -40 -143 -24 -200 11 -41 10 -48 -19 -108 -19 -41 -39 -69 -56 -76 -28
-13 -51 -8 -59 14 -3 8 24 96 59 195 36 100 65 191 65 204 0 28 -43 65 -75 65
-47 0 -65 -30 -135 -234 -38 -109 -78 -208 -87 -219 -21 -23 -53 -36 -70 -30
-23 9 -14 47 47 223 33 95 60 181 60 191 0 28 -45 69 -75 69 -47 0 -68 -37
-138 -240 -70 -203 -78 -250 -51 -301 18 -36 83 -69 134 -69 36 0 113 30 124
48 4 7 20 2 42 -13 20 -14 51 -27 70 -31 89 -16 207 36 252 112 22 35 31 43
47 38 11 -4 39 -9 62 -11 34 -4 43 -10 53 -34 30 -71 121 -116 218 -106 58 6
135 45 153 78 8 16 17 19 39 14 45 -10 134 13 179 46 57 41 93 94 126 186 15
43 29 80 31 82 2 2 17 -2 34 -9 38 -16 39 -39 4 -134 -32 -89 -35 -156 -8
-193 55 -73 129 -90 217 -50 l55 25 49 -25 c40 -20 58 -24 106 -20 32 3 73 14
93 26 l36 21 54 -26 c65 -32 129 -29 192 7 l39 23 34 -25 c43 -31 145 -34 198
-5 56 30 120 103 157 178 40 84 42 111 12 132 -49 35 -83 15 -124 -74 -49
-105 -117 -161 -153 -125 -14 14 -9 34 48 198 34 100 88 255 119 345 l55 163
-20 27 c-27 37 -75 41 -106 10 -13 -13 -42 -77 -67 -148 -24 -69 -47 -135 -51
-146 l-8 -22 -47 24 c-57 29 -105 30 -160 5 -57 -26 -76 -58 -134 -222 -28
-79 -62 -160 -76 -181 -42 -61 -124 -86 -124 -38 0 10 50 162 110 338 61 175
110 333 110 350 0 58 -76 83 -118 40z m-944 -404 c25 -17 27 -32 11 -86 -7
-29 -15 -38 -32 -38 -26 0 -60 -26 -76 -57 -16 -32 -13 -67 9 -95 23 -30 13
-51 -34 -68 -34 -12 -76 9 -76 38 0 26 77 251 95 279 27 40 68 52 103 27z
m1294 -11 c25 -22 23 -44 -14 -152 -36 -104 -73 -154 -110 -149 -35 5 -33 49
7 167 32 97 64 151 88 151 6 0 19 -7 29 -17z"/>
</g>
</svg>
